<?xml version="1.0" standalone="yes"?>

<svg version="1.1" viewBox="0.0 0.0 499.8608923884514 674.7585301837271" fill="none" stroke="none" stroke-linecap="square" stroke-miterlimit="10" xmlns="http://www.w3.org/2000/svg" xmlns:xlink="http://www.w3.org/1999/xlink"><clipPath id="p.0"><path d="m0 0l499.8609 0l0 674.75854l-499.8609 0l0 -674.75854z" clip-rule="nonzero"></path></clipPath><g clip-path="url(#p.0)"><path fill="#000000" fill-opacity="0.0" d="m0 0l499.8609 0l0 674.75854l-499.8609 0z" fill-rule="evenodd"></path><path fill="#fff2cc" d="m133.86876 558.85565l47.59056 0l0 100.44092l-47.59056 0z" fill-rule="evenodd"></path><path stroke="#000000" stroke-width="1.0" stroke-linejoin="round" stroke-linecap="butt" d="m133.86876 558.85565l47.59056 0l0 100.44092l-47.59056 0z" fill-rule="evenodd"></path><path fill="#000000" d="m153.33556 612.85547l2.53125 -0.28125q0.09375 0.765625 0.484375 1.140625q0.390625 0.375 1.03125 0.375q0.796875 0 1.359375 -0.734375q0.578125 -0.75 0.734375 -3.09375q-0.984375 1.140625 -2.46875 1.140625q-1.59375 0 -2.765625 -1.234375q-1.15625 -1.234375 -1.15625 -3.234375q0 -2.0625 1.21875 -3.328125q1.234375 -1.265625 3.140625 -1.265625q2.0625 0 3.390625 1.609375q1.328125 1.59375 1.328125 5.25q0 3.734375 -1.390625 5.390625q-1.375 1.640625 -3.59375 1.640625q-1.59375 0 -2.578125 -0.84375q-0.984375 -0.84375 -1.265625 -2.53125zm5.90625 -5.703125q0 -1.265625 -0.578125 -1.953125q-0.578125 -0.703125 -1.34375 -0.703125q-0.71875 0 -1.203125 0.578125q-0.484375 0.5625 -0.484375 1.859375q0 1.328125 0.515625 1.953125q0.53125 0.609375 1.3125 0.609375q0.75 0 1.265625 -0.59375q0.515625 -0.59375 0.515625 -1.75z" fill-rule="nonzero"></path><path fill="#f9cb9c" d="m14.874016 442.98688l47.59055 0l0 100.44092l-47.59055 0z" fill-rule="evenodd"></path><path stroke="#000000" stroke-width="1.0" stroke-linejoin="round" stroke-linecap="butt" d="m14.874016 442.98688l47.59055 0l0 100.44092l-47.59055 0z" fill-rule="evenodd"></path><path fill="#000000" d="m39.40331 500.12735l0 -2.734375l-5.5625 0l0 -2.28125l5.890625 -8.640625l2.1875 0l0 8.625l1.6875 0l0 2.296875l-1.6875 0l0 2.734375l-2.515625 0zm0 -5.03125l0 -4.640625l-3.125 4.640625l3.125 0z" fill-rule="nonzero"></path><path fill="#ead1dc" d="m14.56168 609.0761l98.17323 0l0 50.582703l-98.17323 0z" fill-rule="evenodd"></path><path stroke="#000000" stroke-width="1.0" stroke-linejoin="round" stroke-linecap="butt" d="m14.56168 609.0761l98.17323 0l0 50.582703l-98.17323 0z" fill-rule="evenodd"></path><path fill="#000000" d="m61.50731 633.9437q-1.015625 -0.421875 -1.484375 -1.171875q-0.453125 -0.75 -0.453125 -1.640625q0 -1.515625 1.0625 -2.5q1.0625 -1.0 3.03125 -1.0q1.9375 0 3.0 1.0q1.078125 0.984375 1.078125 2.5q0 0.953125 -0.5 1.6875q-0.484375 0.734375 -1.375 1.125q1.125 0.453125 1.71875 1.328125q0.59375 0.875 0.59375 2.015625q0 1.890625 -1.203125 3.0625q-1.203125 1.171875 -3.203125 1.171875q-1.859375 0 -3.078125 -0.96875q-1.46875 -1.15625 -1.46875 -3.15625q0 -1.09375 0.546875 -2.015625q0.546875 -0.9375 1.734375 -1.4375zm0.53125 -2.625q0 0.78125 0.4375 1.21875q0.453125 0.4375 1.1875 0.4375q0.734375 0 1.171875 -0.4375q0.453125 -0.4375 0.453125 -1.21875q0 -0.734375 -0.4375 -1.171875q-0.4375 -0.453125 -1.171875 -0.453125q-0.75 0 -1.203125 0.453125q-0.4375 0.4375 -0.4375 1.171875zm-0.234375 5.828125q0 1.078125 0.546875 1.6875q0.546875 0.59375 1.375 0.59375q0.8125 0 1.34375 -0.578125q0.53125 -0.578125 0.53125 -1.671875q0 -0.953125 -0.546875 -1.53125q-0.53125 -0.578125 -1.359375 -0.578125q-0.953125 0 -1.421875 0.65625q-0.46875 0.65625 -0.46875 1.421875z" fill-rule="nonzero"></path><path fill="#b4a7d6" d="m14.56168 558.4934l98.17323 0l0 50.582703l-98.17323 0z" fill-rule="evenodd"></path><path stroke="#000000" stroke-width="1.0" stroke-linejoin="round" stroke-linecap="butt" d="m14.56168 558.4934l98.17323 0l0 50.582703l-98.17323 0z" fill-rule="evenodd"></path><path fill="#000000" d="m59.272934 579.7048l0 -2.421875l8.90625 0l0 1.90625q-1.09375 1.078125 -2.234375 3.109375q-1.140625 2.03125 -1.75 4.328125q-0.59375 2.28125 -0.578125 4.078125l-2.515625 0q0.0625 -2.828125 1.15625 -5.75q1.109375 -2.9375 2.9375 -5.25l-5.921875 0z" fill-rule="nonzero"></path><path fill="#b6d7a8" d="m78.6063 493.56955l98.173225 0l0 50.582672l-98.173225 0z" fill-rule="evenodd"></path><path stroke="#000000" stroke-width="1.0" stroke-linejoin="round" stroke-linecap="butt" d="m78.6063 493.56955l98.173225 0l0 50.582672l-98.173225 0z" fill-rule="evenodd"></path><path fill="#000000" d="m132.14568 515.51526l-2.53125 0.28125q-0.09375 -0.78125 -0.484375 -1.15625q-0.375 -0.375 -1.0 -0.375q-0.828125 0 -1.40625 0.75q-0.5625 0.734375 -0.71875 3.078125q0.984375 -1.140625 2.421875 -1.140625q1.640625 0 2.796875 1.25q1.171875 1.234375 1.171875 3.203125q0 2.078125 -1.234375 3.34375q-1.21875 1.265625 -3.140625 1.265625q-2.0625 0 -3.390625 -1.59375q-1.3125 -1.609375 -1.3125 -5.25q0 -3.75 1.375 -5.390625q1.390625 -1.65625 3.59375 -1.65625q1.546875 0 2.5625 0.875q1.015625 0.859375 1.296875 2.515625zm-5.90625 5.6875q0 1.265625 0.578125 1.953125q0.59375 0.6875 1.34375 0.6875q0.71875 0 1.203125 -0.5625q0.484375 -0.5625 0.484375 -1.84375q0 -1.328125 -0.53125 -1.9375q-0.515625 -0.625 -1.296875 -0.625q-0.75 0 -1.265625 0.59375q-0.515625 0.578125 -0.515625 1.734375z" fill-rule="nonzero"></path><path fill="#cfe2f3" d="m78.6063 442.98688l98.173225 0l0 50.582672l-98.173225 0z" fill-rule="evenodd"></path><path stroke="#000000" stroke-width="1.0" stroke-linejoin="round" stroke-linecap="butt" d="m78.6063 442.98688l98.173225 0l0 50.582672l-98.173225 0z" fill-rule="evenodd"></path><path fill="#000000" d="m123.3488 471.6982l2.59375 -0.265625q0.109375 0.875 0.65625 1.390625q0.546875 0.515625 1.265625 0.515625q0.8125 0 1.375 -0.65625q0.578125 -0.671875 0.578125 -2.0q0 -1.25 -0.5625 -1.875q-0.5625 -0.625 -1.46875 -0.625q-1.109375 0 -2.0 0.984375l-2.125 -0.3125l1.34375 -7.078125l6.890625 0l0 2.453125l-4.921875 0l-0.40625 2.296875q0.875 -0.421875 1.78125 -0.421875q1.734375 0 2.9375 1.265625q1.203125 1.25 1.203125 3.265625q0 1.671875 -0.96875 3.0q-1.328125 1.796875 -3.6875 1.796875q-1.875 0 -3.0625 -1.015625q-1.1875 -1.015625 -1.421875 -2.71875z" fill-rule="nonzero"></path><path fill="#ead1dc" d="m211.4228 493.56955l128.90144 0l0 50.582672l-128.90144 0z" fill-rule="evenodd"></path><path stroke="#000000" stroke-width="1.0" stroke-linejoin="round" stroke-linecap="butt" d="m211.4228 493.56955l128.90144 0l0 50.582672l-128.90144 0z" fill-rule="evenodd"></path><path fill="#000000" d="m273.73254 518.43713q-1.015625 -0.421875 -1.484375 -1.171875q-0.453125 -0.75 -0.453125 -1.640625q0 -1.515625 1.0625 -2.5q1.0625 -1.0 3.03125 -1.0q1.9375 0 3.0 1.0q1.078125 0.984375 1.078125 2.5q0 0.953125 -0.5 1.6875q-0.484375 0.734375 -1.375 1.125q1.125 0.453125 1.71875 1.328125q0.59375 0.875 0.59375 2.015625q0 1.890625 -1.203125 3.0625q-1.203125 1.171875 -3.203125 1.171875q-1.859375 0 -3.078125 -0.96875q-1.46875 -1.15625 -1.46875 -3.15625q0 -1.09375 0.546875 -2.015625q0.546875 -0.9375 1.734375 -1.4375zm0.53125 -2.625q0 0.78125 0.4375 1.21875q0.453125 0.4375 1.1875 0.4375q0.734375 0 1.171875 -0.4375q0.453125 -0.4375 0.453125 -1.21875q0 -0.734375 -0.4375 -1.171875q-0.4375 -0.453125 -1.171875 -0.453125q-0.75 0 -1.203125 0.453125q-0.4375 0.4375 -0.4375 1.171875zm-0.234375 5.828125q0 1.078125 0.546875 1.6875q0.546875 0.59375 1.375 0.59375q0.8125 0 1.34375 -0.578125q0.53125 -0.578125 0.53125 -1.671875q0 -0.953125 -0.546875 -1.53125q-0.53125 -0.578125 -1.359375 -0.578125q-0.953125 0 -1.421875 0.65625q-0.46875 0.65625 -0.46875 1.421875z" fill-rule="nonzero"></path><path fill="#b6d7a8" d="m211.4228 442.98688l128.90144 0l0 50.582672l-128.90144 0z" fill-rule="evenodd"></path><path stroke="#000000" stroke-width="1.0" stroke-linejoin="round" stroke-linecap="butt" d="m211.4228 442.98688l128.90144 0l0 50.582672l-128.90144 0z" fill-rule="evenodd"></path><path fill="#000000" d="m280.3263 464.9326l-2.53125 0.28125q-0.09375 -0.78125 -0.484375 -1.15625q-0.375 -0.375 -1.0 -0.375q-0.828125 0 -1.40625 0.75q-0.5625 0.734375 -0.71875 3.078125q0.984375 -1.140625 2.421875 -1.140625q1.640625 0 2.796875 1.25q1.171875 1.234375 1.171875 3.203125q0 2.078125 -1.234375 3.34375q-1.21875 1.265625 -3.140625 1.265625q-2.0625 0 -3.390625 -1.59375q-1.3125 -1.609375 -1.3125 -5.25q0 -3.75 1.375 -5.390625q1.390625 -1.65625 3.59375 -1.65625q1.546875 0 2.5625 0.875q1.015625 0.859375 1.296875 2.515625zm-5.90625 5.6875q0 1.265625 0.578125 1.953125q0.59375 0.6875 1.34375 0.6875q0.71875 0 1.203125 -0.5625q0.484375 -0.5625 0.484375 -1.84375q0 -1.328125 -0.53125 -1.9375q-0.515625 -0.625 -1.296875 -0.625q-0.75 0 -1.265625 0.59375q-0.515625 0.578125 -0.515625 1.734375z" fill-rule="nonzero"></path><path fill="#cfe2f3" d="m16.35433 238.92126l162.51968 0l0 50.582672l-162.51968 0z" fill-rule="evenodd"></path><path stroke="#000000" stroke-width="1.0" stroke-linejoin="round" stroke-linecap="butt" d="m16.35433 238.92126l162.51968 0l0 50.582672l-162.51968 0z" fill-rule="evenodd"></path><path fill="#000000" d="m93.270065 267.6326l2.59375 -0.265625q0.109375 0.875 0.65625 1.390625q0.546875 0.515625 1.265625 0.515625q0.8125 0 1.375 -0.65625q0.578125 -0.671875 0.578125 -2.0q0 -1.25 -0.5625 -1.875q-0.5625 -0.625 -1.46875 -0.625q-1.109375 0 -2.0 0.984375l-2.125 -0.3125l1.34375 -7.078125l6.890625 0l0 2.453125l-4.921875 0l-0.40625 2.296875q0.875 -0.421875 1.78125 -0.421875q1.734375 0 2.9375 1.265625q1.203125 1.25 1.203125 3.265625q0 1.671875 -0.96875 3.0q-1.328125 1.796875 -3.6875 1.796875q-1.875 0 -3.0625 -1.015625q-1.1875 -1.015625 -1.421875 -2.71875z" fill-rule="nonzero"></path><path fill="#f9cb9c" d="m16.346457 170.50394l162.51968 0l0 50.582672l-162.51968 0z" fill-rule="evenodd"></path><path stroke="#000000" stroke-width="1.0" stroke-linejoin="round" stroke-linecap="butt" d="m16.346457 170.50394l162.51968 0l0 50.582672l-162.51968 0z" fill-rule="evenodd"></path><path fill="#000000" d="m98.34032 202.71527l0 -2.734375l-5.5625 0l0 -2.28125l5.890625 -8.640625l2.1875 0l0 8.625l1.6875 0l0 2.296875l-1.6875 0l0 2.734375l-2.515625 0zm0 -5.03125l0 -4.640625l-3.125 4.640625l3.125 0z" fill-rule="nonzero"></path><path fill="#cfe2f3" d="m131.28871 51.866142l47.59056 0l0 100.44094l-47.59056 0z" fill-rule="evenodd"></path><path stroke="#000000" stroke-width="1.0" stroke-linejoin="round" stroke-linecap="butt" d="m131.28871 51.866142l47.59056 0l0 100.44094l-47.59056 0z" fill-rule="evenodd"></path><path fill="#000000" d="m150.61488 105.39724l2.515625 -0.3125q0.125 0.96875 0.65625 1.484375q0.53125 0.5 1.28125 0.5q0.796875 0 1.34375 -0.609375q0.5625 -0.609375 0.5625 -1.640625q0 -0.984375 -0.53125 -1.5625q-0.53125 -0.578125 -1.28125 -0.578125q-0.5 0 -1.203125 0.203125l0.28125 -2.125q1.0625 0.015625 1.609375 -0.46875q0.5625 -0.484375 0.5625 -1.296875q0 -0.6875 -0.40625 -1.09375q-0.40625 -0.40625 -1.078125 -0.40625q-0.671875 0 -1.140625 0.46875q-0.46875 0.46875 -0.578125 1.359375l-2.40625 -0.421875q0.25 -1.234375 0.75 -1.96875q0.515625 -0.734375 1.421875 -1.15625q0.90625 -0.421875 2.03125 -0.421875q1.90625 0 3.078125 1.21875q0.953125 1.0 0.953125 2.265625q0 1.796875 -1.953125 2.859375q1.15625 0.25 1.859375 1.125q0.703125 0.875 0.703125 2.109375q0 1.78125 -1.3125 3.046875q-1.296875 1.265625 -3.25 1.265625q-1.84375 0 -3.0625 -1.0625q-1.21875 -1.0625 -1.40625 -2.78125z" fill-rule="nonzero"></path><path fill="#cfe2f3" d="m16.346457 102.08662l98.173225 0l0 50.58268l-98.173225 0z" fill-rule="evenodd"></path><path stroke="#000000" stroke-width="1.0" stroke-linejoin="round" stroke-linecap="butt" d="m16.346457 102.08662l98.173225 0l0 50.58268l-98.173225 0z" fill-rule="evenodd"></path><path fill="#000000" d="m69.85458 131.87608l0 2.421875l-9.140621 0q0.15625 -1.375 0.890625 -2.59375q0.75 -1.234375 2.9374962 -3.265625q1.765625 -1.6406326 2.15625 -2.2343826q0.546875 -0.796875 0.546875 -1.59375q0 -0.875 -0.46875 -1.34375q-0.46875 -0.46875 -1.296875 -0.46875q-0.8125 0 -1.296875 0.5q-0.4843712 0.484375 -0.5624962 1.625l-2.59375 -0.25q0.234375 -2.15625 1.453125 -3.09375q1.21875 -0.9375 3.0624962 -0.9375q2.015625 0 3.15625 1.09375q1.15625 1.078125 1.15625 2.6875q0 0.921875 -0.328125 1.75q-0.328125 0.828125 -1.046875 1.734375q-0.46875 0.6093826 -1.703125 1.7500076q-1.234375 1.125 -1.5625 1.5q-0.328125 0.359375 -0.53125 0.71875l5.171875 0z" fill-rule="nonzero"></path><path fill="#cfe2f3" d="m16.346457 51.503937l98.173225 0l0 50.58268l-98.173225 0z" fill-rule="evenodd"></path><path stroke="#000000" stroke-width="1.0" stroke-linejoin="round" stroke-linecap="butt" d="m16.346457 51.503937l98.173225 0l0 50.58268l-98.173225 0z" fill-rule="evenodd"></path><path fill="#000000" d="m67.72958 83.71528l-2.609375 0l0 -9.828125q-1.4374962 1.34375 -3.3749962 1.984375l0 -2.375q1.03125 -0.328125 2.21875 -1.25q1.2031212 -0.9375 1.6406212 -2.1875l2.125 0l0 13.65625z" fill-rule="nonzero"></path><path fill="#000000" fill-opacity="0.0" d="m-3.9081364 0.9212598l198.67717 0l0 50.582676l-198.67717 0z" fill-rule="evenodd"></path><path fill="#000000" d="m51.799587 32.96126l0 -17.1875l5.1875 0l3.125 11.718749l3.078125 -11.718749l5.203129 0l0 17.1875l-3.21875 0l0 -13.531252l-3.4218788 13.531252l-3.328125 0l-3.40625 -13.531252l0 13.531252l-3.21875 0zm27.226566 -3.968752l3.28125 0.5625q-0.640625 1.796875 -2.015625 2.750002q-1.359375 0.9375 -3.40625 0.9375q-3.25 0 -4.796875 -2.125002q-1.234375 -1.703125 -1.234375 -4.28125q0 -3.09375 1.609375 -4.84375q1.625 -1.765625 4.09375 -1.765625q2.78125 0 4.375 1.84375q1.609375 1.828125 1.546875 5.609375l-8.25 0q0.03125 1.46875 0.796875 2.28125q0.765625 0.8125 1.890625 0.8125q0.78125 0 1.296875 -0.421875q0.53125 -0.421875 0.8125 -1.359375zm0.1875 -3.328125q-0.046875 -1.421875 -0.75 -2.15625q-0.703125 -0.75 -1.703125 -0.75q-1.078125 0 -1.78125 0.78125q-0.703125 0.78125 -0.6875 2.125l4.921875 0zm17.363281 7.296877l-3.0625 0l0 -1.8281269q-0.765625 1.0625019 -1.796875 1.5937519q-1.03125 0.515625 -2.09375 0.515625q-2.140625 0 -3.671875 -1.7187519q-1.53125 -1.734375 -1.53125 -4.828125q0 -3.171875 1.484375 -4.8125q1.5 -1.65625 3.765625 -1.65625q2.09375 0 3.609375 1.734375l0 -6.187499l3.296875 0l0 17.1875zm-8.796875 -6.500002q0 2.0 0.5625 2.890625q0.796875 1.28125 2.21875 1.28125q1.140625 0 1.9375 -0.953125q0.796875 -0.96875 0.796875 -2.890625q0 -2.15625 -0.78125 -3.09375q-0.765625 -0.9375 -1.96875 -0.9375q-1.171875 0 -1.96875 0.9375q-0.796875 0.921875 -0.796875 2.765625zm12.035156 -7.640625l0 -3.046874l3.296875 0l0 3.046874l-3.296875 0zm0 14.140627l0 -12.453127l3.296875 0l0 12.453127l-3.296875 0zm14.871094 0l0 -1.8593769q-0.6875 0.9843769 -1.796875 1.5625019q-1.109375 0.578125 -2.328125 0.578125q-1.265625 0 -2.265625 -0.546875q-0.984375 -0.5625 -1.4375 -1.5468769q-0.4375 -1.0 -0.4375 -2.765625l0 -7.875l3.296875 0l0 5.71875q0 2.625 0.171875 3.21875q0.1875 0.59375 0.65625 0.9375q0.484375 0.34375 1.234375 0.34375q0.84375 0 1.5 -0.453125q0.671875 -0.46875 0.921875 -1.15625q0.25 -0.6875 0.25 -3.359375l0 -5.25l3.28125 0l0 12.453127l-3.046875 0zm6.2226562 -12.453127l3.03125 0l0 1.703125q1.6250076 -1.984375 3.8750076 -1.984375q1.2031174 0 2.0781174 0.5q0.875 0.484375 1.4375 1.484375q0.828125 -1.0 1.765625 -1.484375q0.953125 -0.5 2.03125 -0.5q1.375 0 2.3125 0.5625q0.953125 0.5625 1.421875 1.640625q0.34375 0.796875 0.34375 2.578125l0 7.953127l-3.296875 0l0 -7.109377q0 -1.859375 -0.328125 -2.390625q-0.46875 -0.703125 -1.40625 -0.703125q-0.703125 0 -1.3125 0.421875q-0.609375 0.421875 -0.875 1.234375q-0.265625 0.8125 -0.265625 2.5625l0 5.984377l-3.296875 0l0 -6.828127q0 -1.8125 -0.171875 -2.328125q-0.171875 -0.53125 -0.5468674 -0.78125q-0.375 -0.265625 -1.0 -0.265625q-0.765625 0 -1.375 0.40625q-0.609375 0.40625 -0.875 1.1875q-0.265625 0.765625 -0.265625 2.5625l0 6.046877l-3.2812576 0l0 -12.453127z" fill-rule="nonzero"></path><path fill="#000000" fill-opacity="0.0" d="m248.021 0.9212598l198.67715 0l0 50.582676l-198.67715 0z" fill-rule="evenodd"></path><path fill="#000000" d="m316.5256 32.96126l0 -17.046875l3.46875 0l0 14.156249l8.625 0l0 2.890627l-12.09375 0zm17.003906 -8.656252l-2.984375 -0.53125q0.5 -1.8125 1.71875 -2.671875q1.234375 -0.875 3.671875 -0.875q2.203125 0 3.28125 0.53125q1.078125 0.515625 1.515625 1.328125q0.4375 0.796875 0.4375 2.9375l-0.03125 3.84375q0 1.640625 0.15625 2.421875q0.15625 0.7812519 0.59375 1.6718769l-3.265625 0q-0.125 -0.328125 -0.3125 -0.9687519q-0.078125 -0.296875 -0.125 -0.390625q-0.84375 0.8125019 -1.8125 1.2343769q-0.953125 0.40625 -2.03125 0.40625q-1.921875 0 -3.03125 -1.046875q-1.109375 -1.0468769 -1.109375 -2.640627q0 -1.046875 0.5 -1.875q0.5 -0.828125 1.40625 -1.265625q0.921875 -0.4375 2.625 -0.765625q2.3125 -0.4375 3.203125 -0.8125l0 -0.328125q0 -0.953125 -0.46875 -1.34375q-0.46875 -0.40625 -1.765625 -0.40625q-0.890625 0 -1.390625 0.34375q-0.484375 0.34375 -0.78125 1.203125zm4.40625 2.671875q-0.640625 0.21875 -2.015625 0.515625q-1.359375 0.28125 -1.78125 0.5625q-0.640625 0.46875 -0.640625 1.171875q0 0.6875 0.515625 1.1875q0.515625 0.5 1.3125 0.5q0.890625 0 1.6875 -0.578125q0.609375 -0.453125 0.796875 -1.09375q0.125 -0.421875 0.125 -1.609375l0 -0.65625zm9.628906 5.984377l-3.296875 0l0 -12.453127l3.0625 0l0 1.78125q0.78125 -1.265625 1.40625 -1.65625q0.640625 -0.40625 1.4375 -0.40625q1.125 0 2.15625 0.625l-1.015625 2.875q-0.828125 -0.546875 -1.546875 -0.546875q-0.6875 0 -1.171875 0.390625q-0.484375 0.375 -0.765625 1.375q-0.265625 1.0 -0.265625 4.171875l0 3.843752zm5.8867188 0.828125l3.765625 0.453125q0.09375 0.65625 0.421875 0.90625q0.46875 0.34375 1.484375 0.34375q1.28125 0 1.9375 -0.390625q0.421875 -0.25 0.65625 -0.828125q0.140625 -0.40625 0.140625 -1.515625l0 -1.8125019q-1.46875 2.015627 -3.71875 2.015627q-2.515625 0 -3.96875 -2.125002q-1.15625 -1.671875 -1.15625 -4.171875q0 -3.125 1.5 -4.78125q1.515625 -1.65625 3.75 -1.65625q2.3125 0 3.8125 2.03125l0 -1.75l3.078125 0l0 11.171875q0 2.203127 -0.359375 3.296877q-0.359375 1.09375 -1.015625 1.703125q-0.65625 0.625 -1.765625 0.96875q-1.09375 0.359375 -2.765625 0.359375q-3.15625 0 -4.484375 -1.078125q-1.328125 -1.078125 -1.328125 -2.75q0 -0.15625 0.015625 -0.390625zm2.9375 -7.312502q0 1.984375 0.765625 2.90625q0.765625 0.921875 1.890625 0.921875q1.21875 0 2.046875 -0.9375q0.828125 -0.953125 0.828125 -2.8125q0 -1.921875 -0.796875 -2.859375q-0.796875 -0.9375 -2.015625 -0.9375q-1.1875 0 -1.953125 0.921875q-0.765625 0.90625 -0.765625 2.796875zm19.238281 2.515625l3.28125 0.5625q-0.640625 1.796875 -2.015625 2.750002q-1.359375 0.9375 -3.40625 0.9375q-3.25 0 -4.796875 -2.125002q-1.234375 -1.703125 -1.234375 -4.28125q0 -3.09375 1.609375 -4.84375q1.625 -1.765625 4.09375 -1.765625q2.78125 0 4.375 1.84375q1.609375 1.828125 1.546875 5.609375l-8.25 0q0.03125 1.46875 0.796875 2.28125q0.765625 0.8125 1.890625 0.8125q0.78125 0 1.296875 -0.421875q0.53125 -0.421875 0.8125 -1.359375zm0.1875 -3.328125q-0.046875 -1.421875 -0.75 -2.15625q-0.703125 -0.75 -1.703125 -0.75q-1.078125 0 -1.78125 0.78125q-0.703125 0.78125 -0.6875 2.125l4.921875 0z" fill-rule="nonzero"></path><path fill="#cfe2f3" d="m323.5643 51.866142l47.590546 0l0 100.44094l-47.590546 0z" fill-rule="evenodd"></path><path stroke="#000000" stroke-width="1.0" stroke-linejoin="round" stroke-linecap="butt" d="m323.5643 51.866142l47.590546 0l0 100.44094l-47.590546 0z" fill-rule="evenodd"></path><path fill="#000000" d="m342.89047 105.39724l2.515625 -0.3125q0.125 0.96875 0.65625 1.484375q0.53125 0.5 1.28125 0.5q0.796875 0 1.34375 -0.609375q0.5625 -0.609375 0.5625 -1.640625q0 -0.984375 -0.53125 -1.5625q-0.53125 -0.578125 -1.28125 -0.578125q-0.5 0 -1.203125 0.203125l0.28125 -2.125q1.0625 0.015625 1.609375 -0.46875q0.5625 -0.484375 0.5625 -1.296875q0 -0.6875 -0.40625 -1.09375q-0.40625 -0.40625 -1.078125 -0.40625q-0.671875 0 -1.140625 0.46875q-0.46875 0.46875 -0.578125 1.359375l-2.40625 -0.421875q0.25 -1.234375 0.75 -1.96875q0.515625 -0.734375 1.421875 -1.15625q0.90625 -0.421875 2.03125 -0.421875q1.90625 0 3.078125 1.21875q0.953125 1.0 0.953125 2.265625q0 1.796875 -1.953125 2.859375q1.15625 0.25 1.859375 1.125q0.703125 0.875 0.703125 2.109375q0 1.78125 -1.3125 3.046875q-1.296875 1.265625 -3.25 1.265625q-1.84375 0 -3.0625 -1.0625q-1.21875 -1.0625 -1.40625 -2.78125z" fill-rule="nonzero"></path><path fill="#cfe2f3" d="m385.11285 102.08662l98.17325 0l0 50.58268l-98.17325 0z" fill-rule="evenodd"></path><path stroke="#000000" stroke-width="1.0" stroke-linejoin="round" stroke-linecap="butt" d="m385.11285 102.08662l98.17325 0l0 50.58268l-98.17325 0z" fill-rule="evenodd"></path><path fill="#000000" d="m429.85538 130.79796l2.59375 -0.265625q0.109375 0.875 0.65625 1.390625q0.546875 0.515625 1.265625 0.515625q0.8125 0 1.375 -0.65625q0.578125 -0.671875 0.578125 -2.0q0 -1.25 -0.5625 -1.8750076q-0.5625 -0.625 -1.46875 -0.625q-1.109375 0 -2.0 0.9843826l-2.125 -0.31250763l1.34375 -7.078125l6.890625 0l0 2.453125l-4.921875 0l-0.40625 2.296875q0.875 -0.421875 1.78125 -0.421875q1.734375 0 2.9375 1.265625q1.203125 1.25 1.203125 3.2656326q0 1.671875 -0.96875 3.0q-1.328125 1.796875 -3.6875 1.796875q-1.875 0 -3.0625 -1.015625q-1.1875 -1.015625 -1.421875 -2.71875z" fill-rule="nonzero"></path><path fill="#f9cb9c" d="m385.11285 51.503937l98.17325 0l0 50.58268l-98.17325 0z" fill-rule="evenodd"></path><path stroke="#000000" stroke-width="1.0" stroke-linejoin="round" stroke-linecap="butt" d="m385.11285 51.503937l98.17325 0l0 50.58268l-98.17325 0z" fill-rule="evenodd"></path><path fill="#000000" d="m434.9335 83.71528l0 -2.734375l-5.5625 0l0 -2.28125l5.890625 -8.640625l2.1875 0l0 8.625l1.6875 0l0 2.296875l-1.6875 0l0 2.734375l-2.515625 0zm0 -5.03125l0 -4.640625l-3.125 4.640625l3.125 0z" fill-rule="nonzero"></path><path fill="#cfe2f3" d="m211.43307 102.08662l98.17322 0l0 50.58268l-98.17322 0z" fill-rule="evenodd"></path><path stroke="#000000" stroke-width="1.0" stroke-linejoin="round" stroke-linecap="butt" d="m211.43307 102.08662l98.17322 0l0 50.58268l-98.17322 0z" fill-rule="evenodd"></path><path fill="#000000" d="m264.9412 131.87608l0 2.421875l-9.140625 0q0.15625 -1.375 0.890625 -2.59375q0.75 -1.234375 2.9375 -3.265625q1.765625 -1.6406326 2.15625 -2.2343826q0.546875 -0.796875 0.546875 -1.59375q0 -0.875 -0.46875 -1.34375q-0.46875 -0.46875 -1.296875 -0.46875q-0.8125 0 -1.296875 0.5q-0.484375 0.484375 -0.5625 1.625l-2.59375 -0.25q0.234375 -2.15625 1.453125 -3.09375q1.21875 -0.9375 3.0625 -0.9375q2.015625 0 3.15625 1.09375q1.15625 1.078125 1.15625 2.6875q0 0.921875 -0.328125 1.75q-0.328125 0.828125 -1.046875 1.734375q-0.46875 0.6093826 -1.703125 1.7500076q-1.234375 1.125 -1.5625 1.5q-0.328125 0.359375 -0.53125 0.71875l5.171875 0z" fill-rule="nonzero"></path><path fill="#cfe2f3" d="m211.43307 51.503937l98.17322 0l0 50.58268l-98.17322 0z" fill-rule="evenodd"></path><path stroke="#000000" stroke-width="1.0" stroke-linejoin="round" stroke-linecap="butt" d="m211.43307 51.503937l98.17322 0l0 50.58268l-98.17322 0z" fill-rule="evenodd"></path><path fill="#000000" d="m262.8162 83.71528l-2.609375 0l0 -9.828125q-1.4375 1.34375 -3.375 1.984375l0 -2.375q1.03125 -0.328125 2.21875 -1.25q1.203125 -0.9375 1.640625 -2.1875l2.125 0l0 13.65625z" fill-rule="nonzero"></path><path fill="#cfe2f3" d="m131.68636 327.84253l47.590546 0l0 100.44095l-47.590546 0z" fill-rule="evenodd"></path><path stroke="#000000" stroke-width="1.0" stroke-linejoin="round" stroke-linecap="butt" d="m131.68636 327.84253l47.590546 0l0 100.44095l-47.590546 0z" fill-rule="evenodd"></path><path fill="#000000" d="m151.01251 381.37363l2.515625 -0.3125q0.125 0.96875 0.65625 1.484375q0.53125 0.5 1.28125 0.5q0.796875 0 1.34375 -0.609375q0.5625 -0.609375 0.5625 -1.640625q0 -0.984375 -0.53125 -1.5625q-0.53125 -0.578125 -1.28125 -0.578125q-0.5 0 -1.203125 0.203125l0.28125 -2.125q1.0625 0.015625 1.609375 -0.46875q0.5625 -0.484375 0.5625 -1.296875q0 -0.6875 -0.40625 -1.09375q-0.40625 -0.40625 -1.078125 -0.40625q-0.671875 0 -1.140625 0.46875q-0.46875 0.46875 -0.578125 1.359375l-2.40625 -0.421875q0.25 -1.234375 0.75 -1.96875q0.515625 -0.734375 1.421875 -1.15625q0.90625 -0.421875 2.03125 -0.421875q1.90625 0 3.078125 1.21875q0.953125 1.0 0.953125 2.265625q0 1.796875 -1.953125 2.859375q1.15625 0.25 1.859375 1.125q0.703125 0.875 0.703125 2.109375q0 1.78125 -1.3125 3.046875q-1.296875 1.265625 -3.25 1.265625q-1.84375 0 -3.0625 -1.0625q-1.21875 -1.0625 -1.40625 -2.78125z" fill-rule="nonzero"></path><path fill="#cfe2f3" d="m16.744095 378.063l98.173225 0l0 50.582672l-98.173225 0z" fill-rule="evenodd"></path><path stroke="#000000" stroke-width="1.0" stroke-linejoin="round" stroke-linecap="butt" d="m16.744095 378.063l98.173225 0l0 50.582672l-98.173225 0z" fill-rule="evenodd"></path><path fill="#000000" d="m70.25222 407.85245l0 2.421875l-9.140621 0q0.15625 -1.375 0.890625 -2.59375q0.75 -1.234375 2.9374962 -3.265625q1.765625 -1.640625 2.15625 -2.234375q0.546875 -0.796875 0.546875 -1.59375q0 -0.875 -0.46875 -1.34375q-0.46875 -0.46875 -1.296875 -0.46875q-0.8125 0 -1.296875 0.5q-0.484375 0.484375 -0.5625 1.625l-2.5937462 -0.25q0.234375 -2.15625 1.453125 -3.09375q1.2187462 -0.9375 3.0624962 -0.9375q2.015625 0 3.15625 1.09375q1.15625 1.078125 1.15625 2.6875q0 0.921875 -0.328125 1.75q-0.328125 0.828125 -1.046875 1.734375q-0.46875 0.609375 -1.703125 1.75q-1.234375 1.125 -1.5625 1.5q-0.328125 0.359375 -0.53125 0.71875l5.171875 0z" fill-rule="nonzero"></path><path fill="#cfe2f3" d="m16.744095 327.48032l98.173225 0l0 50.582672l-98.173225 0z" fill-rule="evenodd"></path><path stroke="#000000" stroke-width="1.0" stroke-linejoin="round" stroke-linecap="butt" d="m16.744095 327.48032l98.173225 0l0 50.582672l-98.173225 0z" fill-rule="evenodd"></path><path fill="#000000" d="m68.12722 359.69165l-2.609375 0l0 -9.828125q-1.4375 1.34375 -3.3749962 1.984375l0 -2.375q1.03125 -0.328125 2.2187462 -1.25q1.203125 -0.9375 1.640625 -2.1875l2.125 0l0 13.65625z" fill-rule="nonzero"></path><path fill="#cfe2f3" d="m323.5538 327.84253l47.590546 0l0 100.44095l-47.590546 0z" fill-rule="evenodd"></path><path stroke="#000000" stroke-width="1.0" stroke-linejoin="round" stroke-linecap="butt" d="m323.5538 327.84253l47.590546 0l0 100.44095l-47.590546 0z" fill-rule="evenodd"></path><path fill="#000000" d="m342.87997 381.37363l2.515625 -0.3125q0.125 0.96875 0.65625 1.484375q0.53125 0.5 1.28125 0.5q0.796875 0 1.34375 -0.609375q0.5625 -0.609375 0.5625 -1.640625q0 -0.984375 -0.53125 -1.5625q-0.53125 -0.578125 -1.28125 -0.578125q-0.5 0 -1.203125 0.203125l0.28125 -2.125q1.0625 0.015625 1.609375 -0.46875q0.5625 -0.484375 0.5625 -1.296875q0 -0.6875 -0.40625 -1.09375q-0.40625 -0.40625 -1.078125 -0.40625q-0.671875 0 -1.140625 0.46875q-0.46875 0.46875 -0.578125 1.359375l-2.40625 -0.421875q0.25 -1.234375 0.75 -1.96875q0.515625 -0.734375 1.421875 -1.15625q0.90625 -0.421875 2.03125 -0.421875q1.90625 0 3.078125 1.21875q0.953125 1.0 0.953125 2.265625q0 1.796875 -1.953125 2.859375q1.15625 0.25 1.859375 1.125q0.703125 0.875 0.703125 2.109375q0 1.78125 -1.3125 3.046875q-1.296875 1.265625 -3.25 1.265625q-1.84375 0 -3.0625 -1.0625q-1.21875 -1.0625 -1.40625 -2.78125z" fill-rule="nonzero"></path><path fill="#cfe2f3" d="m385.10236 378.063l98.17325 0l0 50.582672l-98.17325 0z" fill-rule="evenodd"></path><path stroke="#000000" stroke-width="1.0" stroke-linejoin="round" stroke-linecap="butt" d="m385.10236 378.063l98.17325 0l0 50.582672l-98.17325 0z" fill-rule="evenodd"></path><path fill="#000000" d="m429.84488 406.77432l2.59375 -0.265625q0.109375 0.875 0.65625 1.390625q0.546875 0.515625 1.265625 0.515625q0.8125 0 1.375 -0.65625q0.578125 -0.671875 0.578125 -2.0q0 -1.25 -0.5625 -1.875q-0.5625 -0.625 -1.46875 -0.625q-1.109375 0 -2.0 0.984375l-2.125 -0.3125l1.34375 -7.078125l6.890625 0l0 2.453125l-4.921875 0l-0.40625 2.296875q0.875 -0.421875 1.78125 -0.421875q1.734375 0 2.9375 1.265625q1.203125 1.25 1.203125 3.265625q0 1.671875 -0.96875 3.0q-1.328125 1.796875 -3.6875 1.796875q-1.875 0 -3.0625 -1.015625q-1.1875 -1.015625 -1.421875 -2.71875z" fill-rule="nonzero"></path><path fill="#f9cb9c" d="m385.10236 327.48032l98.17325 0l0 50.582672l-98.17325 0z" fill-rule="evenodd"></path><path stroke="#000000" stroke-width="1.0" stroke-linejoin="round" stroke-linecap="butt" d="m385.10236 327.48032l98.17325 0l0 50.582672l-98.17325 0z" fill-rule="evenodd"></path><path fill="#000000" d="m434.923 359.69165l0 -2.734375l-5.5625 0l0 -2.28125l5.890625 -8.640625l2.1875 0l0 8.625l1.6875 0l0 2.296875l-1.6875 0l0 2.734375l-2.515625 0zm0 -5.03125l0 -4.640625l-3.125 4.640625l3.125 0z" fill-rule="nonzero"></path><path fill="#cfe2f3" d="m211.42258 378.063l98.17322 0l0 50.582672l-98.17322 0z" fill-rule="evenodd"></path><path stroke="#000000" stroke-width="1.0" stroke-linejoin="round" stroke-linecap="butt" d="m211.42258 378.063l98.17322 0l0 50.582672l-98.17322 0z" fill-rule="evenodd"></path><path fill="#000000" d="m264.9307 407.85245l0 2.421875l-9.140625 0q0.15625 -1.375 0.890625 -2.59375q0.75 -1.234375 2.9375 -3.265625q1.765625 -1.640625 2.15625 -2.234375q0.546875 -0.796875 0.546875 -1.59375q0 -0.875 -0.46875 -1.34375q-0.46875 -0.46875 -1.296875 -0.46875q-0.8125 0 -1.296875 0.5q-0.484375 0.484375 -0.5625 1.625l-2.59375 -0.25q0.234375 -2.15625 1.453125 -3.09375q1.21875 -0.9375 3.0625 -0.9375q2.015625 0 3.15625 1.09375q1.15625 1.078125 1.15625 2.6875q0 0.921875 -0.328125 1.75q-0.328125 0.828125 -1.046875 1.734375q-0.46875 0.609375 -1.703125 1.75q-1.234375 1.125 -1.5625 1.5q-0.328125 0.359375 -0.53125 0.71875l5.171875 0z" fill-rule="nonzero"></path><path fill="#cfe2f3" d="m211.42258 327.48032l98.17322 0l0 50.582672l-98.17322 0z" fill-rule="evenodd"></path><path stroke="#000000" stroke-width="1.0" stroke-linejoin="round" stroke-linecap="butt" d="m211.42258 327.48032l98.17322 0l0 50.582672l-98.17322 0z" fill-rule="evenodd"></path><path fill="#000000" d="m262.8057 359.69165l-2.609375 0l0 -9.828125q-1.4375 1.34375 -3.375 1.984375l0 -2.375q1.03125 -0.328125 2.21875 -1.25q1.203125 -0.9375 1.640625 -2.1875l2.125 0l0 13.65625z" fill-rule="nonzero"></path><path fill="#fff2cc" d="m354.37292 493.56955l128.91339 0l0 50.582672l-128.91339 0z" fill-rule="evenodd"></path><path stroke="#000000" stroke-width="1.0" stroke-linejoin="round" stroke-linecap="butt" d="m354.37292 493.56955l128.91339 0l0 50.582672l-128.91339 0z" fill-rule="evenodd"></path><path fill="#000000" d="m414.50116 522.64026l2.53125 -0.28125q0.09375 0.765625 0.484375 1.140625q0.390625 0.375 1.0312195 0.375q0.796875 0 1.359375 -0.734375q0.578125 -0.75 0.734375 -3.09375q-0.984375 1.140625 -2.4687195 1.140625q-1.59375 0 -2.765625 -1.234375q-1.15625 -1.234375 -1.15625 -3.234375q0 -2.0625 1.21875 -3.328125q1.234375 -1.265625 3.1405945 -1.265625q2.0625 0 3.390625 1.609375q1.328125 1.59375 1.328125 5.25q0 3.734375 -1.390625 5.390625q-1.375 1.640625 -3.5937195 1.640625q-1.59375 0 -2.578125 -0.84375q-0.984375 -0.84375 -1.265625 -2.53125zm5.9062195 -5.703125q0 -1.265625 -0.578125 -1.953125q-0.578125 -0.703125 -1.34375 -0.703125q-0.7187195 0 -1.2030945 0.578125q-0.484375 0.5625 -0.484375 1.859375q0 1.328125 0.515625 1.953125q0.53125 0.609375 1.3124695 0.609375q0.75 0 1.265625 -0.59375q0.515625 -0.59375 0.515625 -1.75z" fill-rule="nonzero"></path><path fill="#b4a7d6" d="m354.37292 442.98688l128.91339 0l0 50.582672l-128.91339 0z" fill-rule="evenodd"></path><path stroke="#000000" stroke-width="1.0" stroke-linejoin="round" stroke-linecap="butt" d="m354.37292 442.98688l128.91339 0l0 50.582672l-128.91339 0z" fill-rule="evenodd"></path><path fill="#000000" d="m414.45428 464.1982l0 -2.421875l8.9062195 0l0 1.90625q-1.09375 1.078125 -2.234375 3.109375q-1.140625 2.03125 -1.75 4.328125q-0.59375 2.28125 -0.578125 4.078125l-2.5155945 0q0.0625 -2.828125 1.15625 -5.75q1.1093445 -2.9375 2.9374695 -5.25l-5.9218445 0z" fill-rule="nonzero"></path><path fill="#000000" fill-opacity="0.0" d="m4.6902885 309.24146l495.02362 -1.322815" fill-rule="evenodd"></path><path stroke="#000000" stroke-width="1.0" stroke-linejoin="round" stroke-linecap="butt" d="m4.6902885 309.24146l495.02362 -1.322815" fill-rule="evenodd"></path></g></svg>

